HIERARCHY
ROOT Hips
{
  OFFSET -12.2235 100.25 85.0444
  CHANNELS 6 Xposition Yposition Zposition Zrotation Xrotation Yrotation
  JOINT RightUpLeg
  {
    OFFSET -8.9458 -8.66707 0.101652
    CHANNELS 3 Zrotation Xrotation Yrotation
    JOINT RightLeg
    {
      OFFSET 0 -44.4227 1.3727
      CHANNELS 3 Zrotation Xrotation Yrotation
      JOINT RightFoot
      {
        OFFSET 0.253549 -42.0924 -1.46059
        CHANNELS 3 Zrotation Xrotation Yrotation
        JOINT RightToes
        {
          OFFSET 0.04 -4.41509 8.4991
          CHANNELS 3 Zrotation Xrotation Yrotation
          End Site
          {
            OFFSET -0.08 -0.137448 9.77979
          }
        }
      }
    }
  }
  JOINT Spine
  {
    OFFSET 0 11.8905 0
    CHANNELS 3 Zrotation Xrotation Yrotation
    JOINT Spine1
    {
      OFFSET 0 25.6574 0.127663
      CHANNELS 3 Zrotation Xrotation Yrotation
      JOINT HEad
      {
        OFFSET 0 8.73416 0.011341
        CHANNELS 3 Zrotation Xrotation Yrotation
        End Site
        {
          OFFSET -0.29 12.7742 2.51395
        }
      }
      JOINT LeftShoulder1
      {
        OFFSET 8.99 -0.362252 -0.22
        CHANNELS 3 Zrotation Xrotation Yrotation
        JOINT LeftArm
        {
          OFFSET 10.2827 -0.00338 0.322123
          CHANNELS 3 Zrotation Xrotation Yrotation
          JOINT LeftForeArm
          {
            OFFSET 32.7669 0.099144 -1.42434
            CHANNELS 3 Zrotation Xrotation Yrotation
            JOINT LeftHand
            {
              OFFSET 27.5643 0.085362 1.02216
              CHANNELS 3 Zrotation Xrotation Yrotation
              End Site
              {
                OFFSET 16.7443 -0.6 1.50291
              }
            }
          }
        }
      }
      JOINT RightShoulder
      {
        OFFSET -8.99 -0.362252 -0.22
        CHANNELS 3 Zrotation Xrotation Yrotation
        JOINT RightArm
        {
          OFFSET -10.2827 -0.00338 0.322123
          CHANNELS 3 Zrotation Xrotation Yrotation
          JOINT RightForeArm
          {
            OFFSET -32.8971 0.099144 -1.42434
            CHANNELS 3 Zrotation Xrotation Yrotation
            JOINT RightHand
            {
              OFFSET -27.4921 0.085362 1.02216
              CHANNELS 3 Zrotation Xrotation Yrotation
              End Site
              {
                OFFSET -16.6312 -0.6 1.50291
              }
            }
          }
        }
      }
    }
  }
  JOINT LeftUpLeg
  {
    OFFSET 8.9458 -8.66707 0.101652
    CHANNELS 3 Zrotation Xrotation Yrotation
    JOINT LeftLeg
    {
      OFFSET 0 -44.4227 1.3727
      CHANNELS 3 Zrotation Xrotation Yrotation
      JOINT LeftFoot
      {
        OFFSET -0.253549 -42.0924 -1.46059
        CHANNELS 3 Zrotation Xrotation Yrotation
        JOINT LeftToes
        {
          OFFSET -0.04 -4.41509 8.4991
          CHANNELS 3 Zrotation Xrotation Yrotation
          End Site
          {
            OFFSET 0.08 -0.047448 9.77979
          }
        }
      }
    }
  }
}
MOTION
Frames:	12
Frame Time:	0.0166667
-12.2235 100.25 85.0444 -0.328981 -1.40113 178.333 -18.9344 -26.4577 -1.85049 2.05045 31.9196 -0.246761 0.670746 14.9237 -0.442429 0.0462048 0.000533403 0.662642 3.8963 8.56222 -0.415358 2.94068 17.1238 -0.442873 12.8018 -19.0713 -26.9945 3.97569e-016 9.54166e-015 -7.95139e-016 -92.3362 -23.3515 -29.2303 -53.3499 64.158 -78.7621 7.21815 19.4659 -2.26649 13.8385 0.777962 2.05839 98.209 -18.4102 59.9985 -11.0028 52.5401 135.272 -12.7042 19.6268 -2.3096 24.5012 -12.0962 -13.6933 -8.70285 29.1164 11.4362 -2.6807 22.5537 0.833067 -1.35658e-009 1.56009e-007 -4.85075e-009 
-10.6438 101.032 85.2978 -0.560198 -1.83151 178.558 -18.3824 -26.6443 -2.63098 2.02313 31.7443 -0.206379 0.503456 13.2688 -0.394661 0.0462048 0.000533403 0.662642 3.98929 8.67732 -0.165415 3.08183 17.3388 0.0151643 12.7767 -19.2274 -27.593 3.97569e-016 -3.18055e-015 -0 -91.3061 -23.4536 -27.7993 -53.2472 63.9563 -78.4489 7.21815 19.4659 -2.26649 13.9143 0.672426 1.40911 96.8722 -19.4342 58.1175 -9.48908 53.9564 132.401 -14.2831 19.3952 -0.480405 24.3088 -13.2402 -13.1404 -12.0305 30.7864 16.0381 -1.09463 20.0004 0.481291 -1.35658e-009 1.56009e-007 -4.85076e-009 
-9.22818 101.76 85.4952 -0.794647 -2.12926 178.895 -17.9085 -26.6579 -3.11251 2.08301 31.751 -0.404402 0.390892 11.0327 -0.355974 0.0462048 0.000533403 0.662642 4.08481 8.77675 -0.0385686 3.15246 17.5056 0.248444 12.6456 -19.0485 -27.9117 -4.96962e-016 0 -0 -90.3754 -23.3493 -26.7964 -52.9971 63.7766 -78.3124 7.21815 19.4659 -2.26649 14.383 0.520128 0.437906 95.3342 -20.8662 55.8679 -8.23863 55.1379 130.015 -15.9081 19.1313 1.19731 23.8814 -14.2692 -11.9652 -15.3909 32.8676 19.7571 -0.359168 17.7534 0.379405 -1.35658e-009 1.56009e-007 -4.85076e-009 
-7.95711 102.372 85.647 -0.962918 -2.29737 179.393 -17.4921 -26.5524 -3.35715 2.30099 31.9998 -0.901426 0.290568 8.4561 -0.321235 0.0462048 0.000533403 0.662642 4.22034 8.85615 -0.0448365 3.19985 17.6169 0.236613 12.4109 -18.5879 -27.9702 -1.98785e-016 3.18055e-015 -1.39149e-015 -89.6617 -23.0426 -26.397 -52.6704 63.6669 -78.3491 7.21815 19.4659 -2.26649 15.1935 0.330432 -0.719568 93.5938 -22.7583 53.3274 -7.44708 56.0895 128.39 -17.3953 18.8821 2.49239 23.2299 -15.1612 -10.2334 -18.406 35.3627 22.2538 -0.571902 16.2774 0.485303 -1.35658e-009 1.56009e-007 -4.85076e-009 
-6.79561 102.829 85.7704 -1.00696 -2.34665 -179.917 -17.106 -26.3864 -3.42776 2.73998 32.5178 -1.73634 0.188033 5.77444 -0.288671 0.0462048 0.000533403 0.662642 4.41335 8.91492 -0.177672 3.25584 17.6725 -0.00769719 12.128 -17.9151 -27.7857 2.98177e-016 0 -2.98177e-016 -89.282 -22.5406 -26.771 -52.3966 63.6688 -78.4578 7.21815 19.4659 -2.26649 16.2615 0.103819 -1.98321 91.671 -25.1359 50.5595 -7.16558 56.8786 127.609 -18.6382 18.691 3.28863 22.4054 -15.9056 -8.17771 -20.8951 38.203 23.4131 -1.76029 15.7659 0.768009 -1.35658e-009 1.56009e-007 -4.85076e-009 
-5.7038 103.115 85.8875 -0.88528 -2.28736 -179.03 -16.715 -26.2137 -3.38924 3.43066 33.2964 -2.89486 0.105262 3.19735 -0.258037 0.0462048 0.000533403 0.662642 4.66656 8.95814 -0.417593 3.3347 17.6834 -0.444376 11.8893 -17.0994 -27.3764 -3.67752e-015 0 -6.95746e-016 -89.3384 -21.8384 -28.0533 -52.3272 63.8106 -78.4765 7.21815 19.4659 -2.26649 17.4962 -0.166433 -3.33247 89.5706 -27.9573 47.6135 -7.2998 57.5831 127.555 -19.6185 18.5763 3.61087 21.4962 -16.4693 -6.11422 -22.893 41.1962 23.319 -3.90769 16.1062 1.23307 -1.35658e-009 1.56009e-007 -4.85076e-009 
-4.64322 103.23 86.0222 -0.577354 -2.12675 -177.971 -16.2832 -26.0751 -3.31331 4.35953 34.2888 -4.29971 0.0981755 0.909632 -0.2278 0.0462048 0.000533403 0.662642 4.96687 8.99519 -0.73835 3.43666 17.6698 -1.01995 11.7943 -16.1978 -26.7696 -7.95139e-016 -6.36111e-015 8.44835e-016 -89.8952 -20.8992 -30.3149 -52.5911 64.0966 -78.2186 7.21815 19.4659 -2.26649 18.8192 -0.492524 -4.79152 87.2651 -31.0916 44.5314 -7.6481 58.268 127.968 -20.3994 18.5235 3.60995 20.5923 -16.7899 -4.31192 -24.5412 44.0646 22.1738 -6.91196 16.9755 1.89785 -1.35658e-009 1.56009e-007 -4.85076e-009 
-3.58012 103.2 86.1956 -0.0885501 -1.87264 -176.782 -15.7919 -25.9935 -3.27775 5.47544 35.4109 -5.82366 0.250477 -0.923255 -0.194483 0.0462048 0.000533403 0.662642 5.27997 9.03535 -1.11388 3.5541 17.6536 -1.68593 11.9199 -15.2479 -26.0052 1.21756e-015 0 -1.98785e-016 -90.9475 -19.6431 -33.5401 -53.2435 64.4938 -77.5286 7.21815 19.4659 -2.26649 20.1722 -0.889606 -6.40344 84.7112 -34.3267 41.3621 -7.96156 58.9794 128.52 -21.1023 18.4922 3.51315 19.749 -16.7958 -2.91207 -25.9404 46.5198 20.2605 -10.5029 18.0003 2.73781 -1.35658e-009 1.56009e-007 -4.85076e-009 
-2.49041 103.069 86.4226 0.550615 -1.53871 -175.512 -15.2598 -25.9762 -3.35498 6.7154 36.5593 -7.32117 0.668536 -2.15946 -0.155034 0.0462048 0.000533403 0.662642 5.55488 9.08281 -1.52516 3.67826 17.6504 -2.41581 12.2992 -14.2645 -25.1299 -2.17032e-015 0 -2.78764e-016 -92.3849 -17.9602 -37.6159 -54.1982 64.9172 -76.3417 7.21815 19.4659 -2.26649 21.5155 -1.37042 -8.19991 81.891 -37.4096 38.1804 -8.01474 59.742 128.913 -21.859 18.435 3.5482 18.9798 -16.4318 -1.94291 -27.0681 48.3165 17.9666 -14.2125 18.9352 3.6556 -1.35658e-009 1.56009e-007 -4.85076e-009 
-1.36626 102.888 86.7111 1.29488 -1.14773 -174.204 -14.7505 -26.0341 -3.59303 8.03528 37.6488 -8.66209 1.47515 -2.69752 -0.112335 0.0462048 0.000533403 0.662642 5.74434 9.13459 -1.96584 3.80434 17.6632 -3.21419 12.9157 -13.2407 -24.1812 1.46604e-015 -3.18055e-015 9.93923e-017 -93.9738 -15.758 -42.3466 -55.156 65.2246 -74.7554 7.21815 19.4659 -2.26649 22.8176 -1.93698 -10.1699 78.8624 -40.112 35.1096 -7.6781 60.5494 128.969 -22.758 18.3149 3.86669 18.2742 -15.6795 -1.38785 -27.7988 49.2745 15.7677 -17.4878 19.7764 4.51957 -1.35658e-009 1.56009e-007 -4.85075e-009 
-0.218863 102.694 87.0659 2.09932 -0.730343 -172.896 -14.3584 -26.1998 -3.99957 9.42233 38.6458 -9.74675 2.78698 -2.49034 -0.0829218 0.0462048 0.000533403 0.662642 5.82663 9.18269 -2.44449 3.93274 17.6835 -4.11418 13.7106 -12.1541 -23.1717 -2.48481e-016 -3.18055e-015 4.22417e-016 -95.382 -13.0324 -47.5027 -55.5883 65.2354 -73.0588 7.21815 19.4659 -2.26649 24.0463 -2.57139 -12.2376 75.7879 -42.295 32.3286 -6.96479 61.358 128.689 -23.809 18.118 4.49422 17.6183 -14.5704 -1.23506 -27.9909 49.304 14.1048 -19.8757 20.7008 5.23008 -1.35658e-009 1.56009e-007 -4.85076e-009 
0.927367 102.501 87.489 2.92878 -0.321334 -171.624 -14.1735 -26.5282 -4.53893 10.8714 39.5664 -10.4871 4.66748 -1.55124 -0.103981 0.0462048 0.000533403 0.662642 5.80845 9.21784 -2.98025 4.06598 17.6958 -5.16259 14.5973 -10.978 -22.0812 7.82715e-016 -3.18055e-015 7.70291e-016 -96.2517 -9.922 -52.8849 -54.8716 64.7717 -71.6459 7.21815 19.4659 -2.26649 25.1632 -3.2307 -14.2614 72.9253 -43.9483 30.0509 -6.03977 62.1031 128.261 -24.9443 17.8603 5.32489 17.0067 -13.1939 -1.47187 -27.5788 48.4441 13.2445 -21.1132 21.8603 5.72394 -1.35659e-009 1.56009e-007 -4.85076e-009 
